<mxfile host="app.diagrams.net" agent="Mozilla/5.0 (Windows NT 10.0; Win64; x64) AppleWebKit/537.36 (KHTML, like Gecko) Chrome/130.0.0.0 Safari/537.36 GLS/100.10.9766.98" version="24.8.0">
  <diagram name="Page-1" id="dGbuPxgyFfXa6-p88Agu">
    <mxGraphModel dx="2518" dy="2696" grid="1" gridSize="10" guides="1" tooltips="1" connect="1" arrows="1" fold="1" page="0" pageScale="1" pageWidth="850" pageHeight="1100" math="0" shadow="0">
      <root>
        <mxCell id="0" />
        <mxCell id="1" parent="0" />
        <mxCell id="9eXsRLndxlfZN3I_KBE4-1" value="Extends" style="endArrow=block;endSize=16;endFill=0;html=1;rounded=0;" edge="1" parent="1" source="9eXsRLndxlfZN3I_KBE4-71" target="9eXsRLndxlfZN3I_KBE4-63">
          <mxGeometry width="160" relative="1" as="geometry">
            <mxPoint x="231" y="127" as="sourcePoint" />
            <mxPoint x="339.79611650485435" y="-62" as="targetPoint" />
          </mxGeometry>
        </mxCell>
        <mxCell id="9eXsRLndxlfZN3I_KBE4-2" value="Extends" style="endArrow=block;endSize=16;endFill=0;html=1;rounded=0;" edge="1" parent="1" source="9eXsRLndxlfZN3I_KBE4-67" target="9eXsRLndxlfZN3I_KBE4-63">
          <mxGeometry width="160" relative="1" as="geometry">
            <mxPoint x="503.36101083032463" y="127" as="sourcePoint" />
            <mxPoint x="406.009708737864" y="-62" as="targetPoint" />
          </mxGeometry>
        </mxCell>
        <mxCell id="9eXsRLndxlfZN3I_KBE4-3" value="Extends" style="endArrow=block;endSize=16;endFill=0;html=1;rounded=0;" edge="1" parent="1" source="9eXsRLndxlfZN3I_KBE4-59" target="9eXsRLndxlfZN3I_KBE4-67">
          <mxGeometry width="160" relative="1" as="geometry">
            <mxPoint x="441.5488721804511" y="393" as="sourcePoint" />
            <mxPoint x="517.8780487804879" y="247" as="targetPoint" />
          </mxGeometry>
        </mxCell>
        <mxCell id="9eXsRLndxlfZN3I_KBE4-4" value="Extends" style="endArrow=block;endSize=16;endFill=0;html=1;rounded=0;exitX=0.296;exitY=0.042;exitDx=0;exitDy=0;exitPerimeter=0;" edge="1" parent="1" source="9eXsRLndxlfZN3I_KBE4-55" target="9eXsRLndxlfZN3I_KBE4-67">
          <mxGeometry width="160" relative="1" as="geometry">
            <mxPoint x="670" y="400" as="sourcePoint" />
            <mxPoint x="579.4559280957196" y="247" as="targetPoint" />
          </mxGeometry>
        </mxCell>
        <mxCell id="9eXsRLndxlfZN3I_KBE4-5" value="Extends" style="endArrow=block;endSize=16;endFill=0;html=1;rounded=0;" edge="1" parent="1" source="9eXsRLndxlfZN3I_KBE4-32" target="9eXsRLndxlfZN3I_KBE4-42">
          <mxGeometry x="-0.1041" width="160" relative="1" as="geometry">
            <mxPoint x="1169.4255319148938" y="247" as="sourcePoint" />
            <mxPoint x="1395.85" y="12.438000000000102" as="targetPoint" />
            <mxPoint as="offset" />
          </mxGeometry>
        </mxCell>
        <mxCell id="9eXsRLndxlfZN3I_KBE4-6" value="Extends" style="endArrow=block;endSize=16;endFill=0;html=1;rounded=0;" edge="1" parent="1" source="9eXsRLndxlfZN3I_KBE4-36" target="9eXsRLndxlfZN3I_KBE4-42">
          <mxGeometry width="160" relative="1" as="geometry">
            <mxPoint x="1439.3553530751706" y="251" as="sourcePoint" />
            <mxPoint x="1312.6128266033252" y="-60" as="targetPoint" />
          </mxGeometry>
        </mxCell>
        <mxCell id="9eXsRLndxlfZN3I_KBE4-9" value="Use" style="endArrow=open;endSize=12;dashed=1;html=1;rounded=0;" edge="1" parent="1" source="9eXsRLndxlfZN3I_KBE4-51" target="9eXsRLndxlfZN3I_KBE4-98">
          <mxGeometry width="160" relative="1" as="geometry">
            <mxPoint x="960" y="-67.47263681592017" as="sourcePoint" />
            <mxPoint x="1046.3985507246375" y="-10" as="targetPoint" />
          </mxGeometry>
        </mxCell>
        <mxCell id="9eXsRLndxlfZN3I_KBE4-10" value="Use" style="endArrow=open;endSize=12;dashed=1;html=1;rounded=0;" edge="1" parent="1" source="9eXsRLndxlfZN3I_KBE4-51" target="9eXsRLndxlfZN3I_KBE4-95">
          <mxGeometry width="160" relative="1" as="geometry">
            <mxPoint x="805.9854014598541" y="-62" as="sourcePoint" />
            <mxPoint x="743.427536231884" y="-10" as="targetPoint" />
          </mxGeometry>
        </mxCell>
        <mxCell id="9eXsRLndxlfZN3I_KBE4-12" value="Use" style="endArrow=open;endSize=12;dashed=1;html=1;rounded=0;" edge="1" parent="1" source="9eXsRLndxlfZN3I_KBE4-51" target="9eXsRLndxlfZN3I_KBE4-84">
          <mxGeometry width="160" relative="1" as="geometry">
            <mxPoint x="880" y="-182" as="sourcePoint" />
            <mxPoint x="885.6613756613758" y="-286.9999999999998" as="targetPoint" />
          </mxGeometry>
        </mxCell>
        <mxCell id="9eXsRLndxlfZN3I_KBE4-13" value="Creates Instances" style="endArrow=open;endSize=12;dashed=1;html=1;rounded=0;" edge="1" parent="1" source="9eXsRLndxlfZN3I_KBE4-84" target="9eXsRLndxlfZN3I_KBE4-46">
          <mxGeometry x="0.4926" width="160" relative="1" as="geometry">
            <mxPoint x="884.5488322717622" y="-337" as="sourcePoint" />
            <mxPoint x="880" y="-502" as="targetPoint" />
            <mxPoint as="offset" />
          </mxGeometry>
        </mxCell>
        <mxCell id="9eXsRLndxlfZN3I_KBE4-14" value="Creates Instances" style="endArrow=open;endSize=12;dashed=1;html=1;rounded=0;" edge="1" parent="1" source="9eXsRLndxlfZN3I_KBE4-98" target="9eXsRLndxlfZN3I_KBE4-32">
          <mxGeometry width="160" relative="1" as="geometry">
            <mxPoint x="1085.8360655737704" y="40" as="sourcePoint" />
            <mxPoint x="1139.4210526315792" y="240" as="targetPoint" />
          </mxGeometry>
        </mxCell>
        <mxCell id="9eXsRLndxlfZN3I_KBE4-15" value="Creates Instances" style="endArrow=open;endSize=12;dashed=1;html=1;rounded=0;" edge="1" parent="1" source="9eXsRLndxlfZN3I_KBE4-98" target="9eXsRLndxlfZN3I_KBE4-36">
          <mxGeometry x="-0.4729" y="-3" width="160" relative="1" as="geometry">
            <mxPoint x="1109.260869565217" y="40" as="sourcePoint" />
            <mxPoint x="1385.5675675675675" y="251" as="targetPoint" />
            <mxPoint y="1" as="offset" />
          </mxGeometry>
        </mxCell>
        <mxCell id="9eXsRLndxlfZN3I_KBE4-16" value="Creates Instances" style="endArrow=open;endSize=12;dashed=1;html=1;rounded=0;" edge="1" parent="1" source="9eXsRLndxlfZN3I_KBE4-95" target="9eXsRLndxlfZN3I_KBE4-71">
          <mxGeometry x="-0.1913" width="160" relative="1" as="geometry">
            <mxPoint x="655.9999999999998" y="33.683651804670944" as="sourcePoint" />
            <mxPoint x="282" y="159.96660117878196" as="targetPoint" />
            <mxPoint as="offset" />
          </mxGeometry>
        </mxCell>
        <mxCell id="9eXsRLndxlfZN3I_KBE4-17" value="Creates Instances" style="endArrow=open;endSize=12;dashed=1;html=1;rounded=0;entryX=1;entryY=0;entryDx=0;entryDy=0;" edge="1" parent="1" source="9eXsRLndxlfZN3I_KBE4-95" target="9eXsRLndxlfZN3I_KBE4-59">
          <mxGeometry x="0.503" y="-10" width="160" relative="1" as="geometry">
            <mxPoint x="694.7692307692307" y="40" as="sourcePoint" />
            <mxPoint x="452.95890410958896" y="393" as="targetPoint" />
            <mxPoint as="offset" />
          </mxGeometry>
        </mxCell>
        <mxCell id="9eXsRLndxlfZN3I_KBE4-18" value="Creates Instances" style="endArrow=open;endSize=12;dashed=1;html=1;rounded=0;" edge="1" parent="1" source="9eXsRLndxlfZN3I_KBE4-95" target="9eXsRLndxlfZN3I_KBE4-55">
          <mxGeometry width="160" relative="1" as="geometry">
            <mxPoint x="714.393351800554" y="40" as="sourcePoint" />
            <mxPoint x="707.5479452054792" y="393" as="targetPoint" />
          </mxGeometry>
        </mxCell>
        <mxCell id="9eXsRLndxlfZN3I_KBE4-19" value="" style="endArrow=classic;html=1;rounded=0;" edge="1" parent="1" source="9eXsRLndxlfZN3I_KBE4-63" target="9eXsRLndxlfZN3I_KBE4-81">
          <mxGeometry relative="1" as="geometry">
            <mxPoint x="453" y="-126.27480916030527" as="sourcePoint" />
            <mxPoint x="590" y="-136.1929824561405" as="targetPoint" />
          </mxGeometry>
        </mxCell>
        <mxCell id="9eXsRLndxlfZN3I_KBE4-20" value="Label" style="edgeLabel;resizable=0;html=1;;align=center;verticalAlign=middle;" connectable="0" vertex="1" parent="9eXsRLndxlfZN3I_KBE4-19">
          <mxGeometry relative="1" as="geometry" />
        </mxCell>
        <mxCell id="9eXsRLndxlfZN3I_KBE4-21" value="Interacts with" style="edgeLabel;html=1;align=center;verticalAlign=middle;resizable=0;points=[];" vertex="1" connectable="0" parent="9eXsRLndxlfZN3I_KBE4-19">
          <mxGeometry x="0.0249" y="-2" relative="1" as="geometry">
            <mxPoint as="offset" />
          </mxGeometry>
        </mxCell>
        <mxCell id="9eXsRLndxlfZN3I_KBE4-22" value="" style="endArrow=classic;html=1;rounded=0;" edge="1" parent="1" source="9eXsRLndxlfZN3I_KBE4-77" target="9eXsRLndxlfZN3I_KBE4-51">
          <mxGeometry width="50" height="50" relative="1" as="geometry">
            <mxPoint x="700" y="-136" as="sourcePoint" />
            <mxPoint x="760" y="-136" as="targetPoint" />
          </mxGeometry>
        </mxCell>
        <mxCell id="9eXsRLndxlfZN3I_KBE4-23" value="Sends infromation" style="edgeLabel;html=1;align=center;verticalAlign=middle;resizable=0;points=[];" vertex="1" connectable="0" parent="9eXsRLndxlfZN3I_KBE4-22">
          <mxGeometry x="-0.0917" y="-2" relative="1" as="geometry">
            <mxPoint as="offset" />
          </mxGeometry>
        </mxCell>
        <mxCell id="9eXsRLndxlfZN3I_KBE4-28" value="&lt;div style=&quot;font-size: 14px; font-weight: 400; direction: ltr;&quot;&gt;(Singleton)&lt;/div&gt;&lt;div style=&quot;font-size: 14px; font-weight: 400; direction: ltr;&quot;&gt;BillModel&lt;/div&gt;" style="swimlane;fontStyle=1;align=center;verticalAlign=top;childLayout=stackLayout;horizontal=1;startSize=50;horizontalStack=0;resizeParent=1;resizeParentMax=0;resizeLast=0;collapsible=1;marginBottom=0;whiteSpace=wrap;html=1;" vertex="1" parent="1">
          <mxGeometry x="1190" y="524" width="200" height="132" as="geometry" />
        </mxCell>
        <mxCell id="9eXsRLndxlfZN3I_KBE4-29" value="&lt;span style=&quot;text-wrap: nowrap;&quot;&gt;- patientBillList: List&amp;lt;PatientBill&amp;gt;&lt;/span&gt;&lt;div style=&quot;text-wrap: nowrap;&quot;&gt;- dentistBillList: List&amp;lt;DentistBill&amp;gt;&lt;/div&gt;" style="text;strokeColor=none;fillColor=none;align=left;verticalAlign=top;spacingLeft=4;spacingRight=4;overflow=hidden;rotatable=0;points=[[0,0.5],[1,0.5]];portConstraint=eastwest;whiteSpace=wrap;html=1;" vertex="1" parent="9eXsRLndxlfZN3I_KBE4-28">
          <mxGeometry y="50" width="200" height="40" as="geometry" />
        </mxCell>
        <mxCell id="9eXsRLndxlfZN3I_KBE4-30" value="" style="line;strokeWidth=1;fillColor=none;align=left;verticalAlign=middle;spacingTop=-1;spacingLeft=3;spacingRight=3;rotatable=0;labelPosition=right;points=[];portConstraint=eastwest;strokeColor=inherit;" vertex="1" parent="9eXsRLndxlfZN3I_KBE4-28">
          <mxGeometry y="90" width="200" height="8" as="geometry" />
        </mxCell>
        <mxCell id="9eXsRLndxlfZN3I_KBE4-31" value="+ getInstance(): BillModel" style="text;strokeColor=none;fillColor=none;align=left;verticalAlign=top;spacingLeft=4;spacingRight=4;overflow=hidden;rotatable=0;points=[[0,0.5],[1,0.5]];portConstraint=eastwest;whiteSpace=wrap;html=1;" vertex="1" parent="9eXsRLndxlfZN3I_KBE4-28">
          <mxGeometry y="98" width="200" height="34" as="geometry" />
        </mxCell>
        <mxCell id="9eXsRLndxlfZN3I_KBE4-32" value="&lt;div&gt;&lt;span style=&quot;font-size: 14px; font-weight: 400; background-color: initial;&quot;&gt;DentistBill&lt;/span&gt;&lt;/div&gt;" style="swimlane;fontStyle=1;align=center;verticalAlign=top;childLayout=stackLayout;horizontal=1;startSize=30;horizontalStack=0;resizeParent=1;resizeParentMax=0;resizeLast=0;collapsible=1;marginBottom=0;whiteSpace=wrap;html=1;" vertex="1" parent="1">
          <mxGeometry x="1050" y="240" width="180" height="160" as="geometry" />
        </mxCell>
        <mxCell id="9eXsRLndxlfZN3I_KBE4-33" value="&lt;span style=&quot;text-wrap: nowrap;&quot;&gt;- procedureInformation: String&lt;/span&gt;&lt;div style=&quot;text-wrap: nowrap;&quot;&gt;- patientName: String&lt;/div&gt;&lt;div style=&quot;text-wrap: nowrap;&quot;&gt;- dentistName: String&lt;/div&gt;&lt;div style=&quot;text-wrap: nowrap;&quot;&gt;- patientInformation: String&lt;/div&gt;" style="text;strokeColor=none;fillColor=none;align=left;verticalAlign=top;spacingLeft=4;spacingRight=4;overflow=hidden;rotatable=0;points=[[0,0.5],[1,0.5]];portConstraint=eastwest;whiteSpace=wrap;html=1;" vertex="1" parent="9eXsRLndxlfZN3I_KBE4-32">
          <mxGeometry y="30" width="180" height="70" as="geometry" />
        </mxCell>
        <mxCell id="9eXsRLndxlfZN3I_KBE4-34" value="" style="line;strokeWidth=1;fillColor=none;align=left;verticalAlign=middle;spacingTop=-1;spacingLeft=3;spacingRight=3;rotatable=0;labelPosition=right;points=[];portConstraint=eastwest;strokeColor=inherit;" vertex="1" parent="9eXsRLndxlfZN3I_KBE4-32">
          <mxGeometry y="100" width="180" height="8" as="geometry" />
        </mxCell>
        <mxCell id="9eXsRLndxlfZN3I_KBE4-35" value="+ dentistBill(Patient, Dentist, Visit, Date, Time, Double, Double, String, String)" style="text;strokeColor=none;fillColor=none;align=left;verticalAlign=top;spacingLeft=4;spacingRight=4;overflow=hidden;rotatable=0;points=[[0,0.5],[1,0.5]];portConstraint=eastwest;whiteSpace=wrap;html=1;" vertex="1" parent="9eXsRLndxlfZN3I_KBE4-32">
          <mxGeometry y="108" width="180" height="52" as="geometry" />
        </mxCell>
        <mxCell id="9eXsRLndxlfZN3I_KBE4-36" value="&lt;span style=&quot;font-size: 14px; font-weight: 400;&quot;&gt;PatientBill&lt;/span&gt;" style="swimlane;fontStyle=1;align=center;verticalAlign=top;childLayout=stackLayout;horizontal=1;startSize=26;horizontalStack=0;resizeParent=1;resizeParentMax=0;resizeLast=0;collapsible=1;marginBottom=0;whiteSpace=wrap;html=1;" vertex="1" parent="1">
          <mxGeometry x="1360" y="252" width="170" height="170" as="geometry" />
        </mxCell>
        <mxCell id="9eXsRLndxlfZN3I_KBE4-37" value="&lt;span style=&quot;text-wrap: nowrap;&quot;&gt;- patientName: String&lt;/span&gt;" style="text;strokeColor=none;fillColor=none;align=left;verticalAlign=top;spacingLeft=4;spacingRight=4;overflow=hidden;rotatable=0;points=[[0,0.5],[1,0.5]];portConstraint=eastwest;whiteSpace=wrap;html=1;" vertex="1" parent="9eXsRLndxlfZN3I_KBE4-36">
          <mxGeometry y="26" width="170" height="26" as="geometry" />
        </mxCell>
        <mxCell id="9eXsRLndxlfZN3I_KBE4-38" value="&lt;span style=&quot;text-wrap: nowrap;&quot;&gt;- patientName: String&lt;/span&gt;" style="text;strokeColor=none;fillColor=none;align=left;verticalAlign=top;spacingLeft=4;spacingRight=4;overflow=hidden;rotatable=0;points=[[0,0.5],[1,0.5]];portConstraint=eastwest;whiteSpace=wrap;html=1;" vertex="1" parent="9eXsRLndxlfZN3I_KBE4-36">
          <mxGeometry y="52" width="170" height="26" as="geometry" />
        </mxCell>
        <mxCell id="9eXsRLndxlfZN3I_KBE4-39" value="&lt;span style=&quot;text-wrap: nowrap;&quot;&gt;- patientName: String&lt;/span&gt;" style="text;strokeColor=none;fillColor=none;align=left;verticalAlign=top;spacingLeft=4;spacingRight=4;overflow=hidden;rotatable=0;points=[[0,0.5],[1,0.5]];portConstraint=eastwest;whiteSpace=wrap;html=1;" vertex="1" parent="9eXsRLndxlfZN3I_KBE4-36">
          <mxGeometry y="78" width="170" height="26" as="geometry" />
        </mxCell>
        <mxCell id="9eXsRLndxlfZN3I_KBE4-40" value="" style="line;strokeWidth=1;fillColor=none;align=left;verticalAlign=middle;spacingTop=-1;spacingLeft=3;spacingRight=3;rotatable=0;labelPosition=right;points=[];portConstraint=eastwest;strokeColor=inherit;" vertex="1" parent="9eXsRLndxlfZN3I_KBE4-36">
          <mxGeometry y="104" width="170" height="8" as="geometry" />
        </mxCell>
        <mxCell id="9eXsRLndxlfZN3I_KBE4-41" value="+ patientBill(Patient, Dentist, Visit, Date, Time, Double, Double)" style="text;strokeColor=none;fillColor=none;align=left;verticalAlign=top;spacingLeft=4;spacingRight=4;overflow=hidden;rotatable=0;points=[[0,0.5],[1,0.5]];portConstraint=eastwest;whiteSpace=wrap;html=1;" vertex="1" parent="9eXsRLndxlfZN3I_KBE4-36">
          <mxGeometry y="112" width="170" height="58" as="geometry" />
        </mxCell>
        <mxCell id="9eXsRLndxlfZN3I_KBE4-42" value="&lt;div style=&quot;font-size: 14px; font-weight: 400; direction: ltr;&quot;&gt;&amp;lt;Abstract&amp;gt;&lt;/div&gt;&lt;div style=&quot;font-size: 14px; font-weight: 400; direction: ltr;&quot;&gt;Bill&lt;/div&gt;" style="swimlane;fontStyle=1;align=center;verticalAlign=top;childLayout=stackLayout;horizontal=1;startSize=42;horizontalStack=0;resizeParent=1;resizeParentMax=0;resizeLast=0;collapsible=1;marginBottom=0;whiteSpace=wrap;html=1;" vertex="1" parent="1">
          <mxGeometry x="1320" y="-239" width="200" height="184" as="geometry" />
        </mxCell>
        <mxCell id="9eXsRLndxlfZN3I_KBE4-43" value="&lt;div&gt;&lt;span style=&quot;text-wrap: nowrap;&quot;&gt;- billID: long&lt;/span&gt;&lt;/div&gt;&lt;div&gt;&lt;span style=&quot;text-wrap: nowrap;&quot;&gt;- visit: Visit&lt;/span&gt;&lt;/div&gt;&lt;span style=&quot;text-wrap: nowrap;&quot;&gt;- subTotal: double&lt;/span&gt;&lt;div style=&quot;text-wrap: nowrap;&quot;&gt;- insuranceDeduction: double&lt;/div&gt;&lt;div style=&quot;text-wrap: nowrap;&quot;&gt;- total: double&lt;/div&gt;&lt;div style=&quot;text-wrap: nowrap;&quot;&gt;- date: Date&lt;/div&gt;&lt;div style=&quot;text-wrap: nowrap;&quot;&gt;- time: Time&lt;/div&gt;" style="text;strokeColor=none;fillColor=none;align=left;verticalAlign=top;spacingLeft=4;spacingRight=4;overflow=hidden;rotatable=0;points=[[0,0.5],[1,0.5]];portConstraint=eastwest;whiteSpace=wrap;html=1;" vertex="1" parent="9eXsRLndxlfZN3I_KBE4-42">
          <mxGeometry y="42" width="200" height="108" as="geometry" />
        </mxCell>
        <mxCell id="9eXsRLndxlfZN3I_KBE4-44" value="" style="line;strokeWidth=1;fillColor=none;align=left;verticalAlign=middle;spacingTop=-1;spacingLeft=3;spacingRight=3;rotatable=0;labelPosition=right;points=[];portConstraint=eastwest;strokeColor=inherit;" vertex="1" parent="9eXsRLndxlfZN3I_KBE4-42">
          <mxGeometry y="150" width="200" height="8" as="geometry" />
        </mxCell>
        <mxCell id="9eXsRLndxlfZN3I_KBE4-45" value="+ generateID(): long" style="text;strokeColor=none;fillColor=none;align=left;verticalAlign=top;spacingLeft=4;spacingRight=4;overflow=hidden;rotatable=0;points=[[0,0.5],[1,0.5]];portConstraint=eastwest;whiteSpace=wrap;html=1;" vertex="1" parent="9eXsRLndxlfZN3I_KBE4-42">
          <mxGeometry y="158" width="200" height="26" as="geometry" />
        </mxCell>
        <mxCell id="9eXsRLndxlfZN3I_KBE4-46" value="&lt;span style=&quot;font-size: 14px; font-weight: 400;&quot;&gt;Visit&lt;/span&gt;" style="swimlane;fontStyle=1;align=center;verticalAlign=top;childLayout=stackLayout;horizontal=1;startSize=26;horizontalStack=0;resizeParent=1;resizeParentMax=0;resizeLast=0;collapsible=1;marginBottom=0;whiteSpace=wrap;html=1;" vertex="1" parent="1">
          <mxGeometry x="740" y="-890" width="273" height="214" as="geometry" />
        </mxCell>
        <mxCell id="9eXsRLndxlfZN3I_KBE4-47" value="&lt;div&gt;&lt;span style=&quot;background-color: initial;&quot;&gt;- visitID: long&lt;/span&gt;&lt;/div&gt;&lt;div&gt;&lt;span style=&quot;background-color: initial;&quot;&gt;- visitType: String&lt;/span&gt;&lt;/div&gt;&lt;div&gt;&lt;span style=&quot;background-color: initial;&quot;&gt;- date: Date&lt;/span&gt;&lt;/div&gt;&lt;div&gt;&lt;span style=&quot;background-color: initial;&quot;&gt;-&amp;nbsp;&lt;/span&gt;&lt;span style=&quot;background-color: initial;&quot;&gt;time: Time&lt;/span&gt;&lt;/div&gt;&lt;div&gt;- patient: Patient&lt;span style=&quot;background-color: initial;&quot;&gt;&lt;br&gt;&lt;/span&gt;&lt;/div&gt;&lt;div&gt;- dentist: Dentist&lt;br&gt;&lt;/div&gt;" style="text;strokeColor=none;fillColor=none;align=left;verticalAlign=top;spacingLeft=4;spacingRight=4;overflow=hidden;rotatable=0;points=[[0,0.5],[1,0.5]];portConstraint=eastwest;whiteSpace=wrap;html=1;" vertex="1" parent="9eXsRLndxlfZN3I_KBE4-46">
          <mxGeometry y="26" width="273" height="104" as="geometry" />
        </mxCell>
        <mxCell id="9eXsRLndxlfZN3I_KBE4-48" value="" style="line;strokeWidth=1;fillColor=none;align=left;verticalAlign=middle;spacingTop=-1;spacingLeft=3;spacingRight=3;rotatable=0;labelPosition=right;points=[];portConstraint=eastwest;strokeColor=inherit;" vertex="1" parent="9eXsRLndxlfZN3I_KBE4-46">
          <mxGeometry y="130" width="273" height="8" as="geometry" />
        </mxCell>
        <mxCell id="9eXsRLndxlfZN3I_KBE4-49" value="+ generatePatientBill(Patient, Dentist, Visit, Date, Time, Double, Double)" style="text;strokeColor=none;fillColor=none;align=left;verticalAlign=top;spacingLeft=4;spacingRight=4;overflow=hidden;rotatable=0;points=[[0,0.5],[1,0.5]];portConstraint=eastwest;whiteSpace=wrap;html=1;" vertex="1" parent="9eXsRLndxlfZN3I_KBE4-46">
          <mxGeometry y="138" width="273" height="36" as="geometry" />
        </mxCell>
        <mxCell id="9eXsRLndxlfZN3I_KBE4-50" value="+ generateDentistBill(Patient, Dentist, Visit, Date, Time, Double, Double, String, String)" style="text;strokeColor=none;fillColor=none;align=left;verticalAlign=top;spacingLeft=4;spacingRight=4;overflow=hidden;rotatable=0;points=[[0,0.5],[1,0.5]];portConstraint=eastwest;whiteSpace=wrap;html=1;" vertex="1" parent="9eXsRLndxlfZN3I_KBE4-46">
          <mxGeometry y="174" width="273" height="40" as="geometry" />
        </mxCell>
        <mxCell id="9eXsRLndxlfZN3I_KBE4-51" value="&lt;div style=&quot;font-size: 14px; font-weight: 400; direction: ltr;&quot;&gt;(singleton)&lt;span style=&quot;background-color: initial;&quot;&gt;&lt;br&gt;&lt;/span&gt;&lt;/div&gt;&lt;div style=&quot;font-size: 14px; font-weight: 400; direction: ltr;&quot;&gt;&lt;span style=&quot;background-color: initial;&quot;&gt;Clinic System&lt;/span&gt;&lt;/div&gt;" style="swimlane;fontStyle=1;align=center;verticalAlign=top;childLayout=stackLayout;horizontal=1;startSize=40;horizontalStack=0;resizeParent=1;resizeParentMax=0;resizeLast=0;collapsible=1;marginBottom=0;whiteSpace=wrap;html=1;" vertex="1" parent="1">
          <mxGeometry x="810" y="-218" width="160" height="190" as="geometry" />
        </mxCell>
        <mxCell id="9eXsRLndxlfZN3I_KBE4-52" value="- usersList: List&amp;lt;User&amp;gt;&lt;div&gt;- patientsList: List&amp;lt;Patient&amp;gt;&lt;/div&gt;&lt;div&gt;- dentistsList: List&amp;lt;Dentist&amp;gt;&lt;/div&gt;&lt;div&gt;- billsList: List&amp;lt;Bill&amp;gt;&lt;/div&gt;&lt;div&gt;- visitsList: List&amp;lt;Visit&amp;gt;&lt;/div&gt;" style="text;strokeColor=none;fillColor=none;align=left;verticalAlign=top;spacingLeft=4;spacingRight=4;overflow=hidden;rotatable=0;points=[[0,0.5],[1,0.5]];portConstraint=eastwest;whiteSpace=wrap;html=1;" vertex="1" parent="9eXsRLndxlfZN3I_KBE4-51">
          <mxGeometry y="40" width="160" height="100" as="geometry" />
        </mxCell>
        <mxCell id="9eXsRLndxlfZN3I_KBE4-53" value="" style="line;strokeWidth=1;fillColor=none;align=left;verticalAlign=middle;spacingTop=-1;spacingLeft=3;spacingRight=3;rotatable=0;labelPosition=right;points=[];portConstraint=eastwest;strokeColor=inherit;" vertex="1" parent="9eXsRLndxlfZN3I_KBE4-51">
          <mxGeometry y="140" width="160" height="8" as="geometry" />
        </mxCell>
        <mxCell id="9eXsRLndxlfZN3I_KBE4-54" value="+ getters(): List&lt;div&gt;+ setters(List): void&lt;/div&gt;" style="text;strokeColor=none;fillColor=none;align=left;verticalAlign=top;spacingLeft=4;spacingRight=4;overflow=hidden;rotatable=0;points=[[0,0.5],[1,0.5]];portConstraint=eastwest;whiteSpace=wrap;html=1;" vertex="1" parent="9eXsRLndxlfZN3I_KBE4-51">
          <mxGeometry y="148" width="160" height="42" as="geometry" />
        </mxCell>
        <mxCell id="9eXsRLndxlfZN3I_KBE4-55" value="&lt;span style=&quot;font-size: 14px; font-weight: 400;&quot;&gt;ApprenticeDentist&lt;/span&gt;" style="swimlane;fontStyle=1;align=center;verticalAlign=top;childLayout=stackLayout;horizontal=1;startSize=26;horizontalStack=0;resizeParent=1;resizeParentMax=0;resizeLast=0;collapsible=1;marginBottom=0;whiteSpace=wrap;html=1;" vertex="1" parent="1">
          <mxGeometry x="650" y="330" width="220" height="92" as="geometry" />
        </mxCell>
        <mxCell id="9eXsRLndxlfZN3I_KBE4-56" value="- allowedOperations: ArrayList&amp;lt;String&amp;gt;" style="text;strokeColor=none;fillColor=none;align=left;verticalAlign=top;spacingLeft=4;spacingRight=4;overflow=hidden;rotatable=0;points=[[0,0.5],[1,0.5]];portConstraint=eastwest;whiteSpace=wrap;html=1;" vertex="1" parent="9eXsRLndxlfZN3I_KBE4-55">
          <mxGeometry y="26" width="220" height="24" as="geometry" />
        </mxCell>
        <mxCell id="9eXsRLndxlfZN3I_KBE4-57" value="" style="line;strokeWidth=1;fillColor=none;align=left;verticalAlign=middle;spacingTop=-1;spacingLeft=3;spacingRight=3;rotatable=0;labelPosition=right;points=[];portConstraint=eastwest;strokeColor=inherit;" vertex="1" parent="9eXsRLndxlfZN3I_KBE4-55">
          <mxGeometry y="50" width="220" height="8" as="geometry" />
        </mxCell>
        <mxCell id="9eXsRLndxlfZN3I_KBE4-58" value="+ method(type): type" style="text;strokeColor=none;fillColor=none;align=left;verticalAlign=top;spacingLeft=4;spacingRight=4;overflow=hidden;rotatable=0;points=[[0,0.5],[1,0.5]];portConstraint=eastwest;whiteSpace=wrap;html=1;" vertex="1" parent="9eXsRLndxlfZN3I_KBE4-55">
          <mxGeometry y="58" width="220" height="34" as="geometry" />
        </mxCell>
        <mxCell id="9eXsRLndxlfZN3I_KBE4-59" value="&lt;span style=&quot;font-size: 14px; font-weight: 400;&quot;&gt;RegularDentist&lt;/span&gt;" style="swimlane;fontStyle=1;align=center;verticalAlign=top;childLayout=stackLayout;horizontal=1;startSize=26;horizontalStack=0;resizeParent=1;resizeParentMax=0;resizeLast=0;collapsible=1;marginBottom=0;whiteSpace=wrap;html=1;" vertex="1" parent="1">
          <mxGeometry x="340" y="340" width="160" height="86" as="geometry" />
        </mxCell>
        <mxCell id="9eXsRLndxlfZN3I_KBE4-60" value="- specialty: String" style="text;strokeColor=none;fillColor=none;align=left;verticalAlign=top;spacingLeft=4;spacingRight=4;overflow=hidden;rotatable=0;points=[[0,0.5],[1,0.5]];portConstraint=eastwest;whiteSpace=wrap;html=1;" vertex="1" parent="9eXsRLndxlfZN3I_KBE4-59">
          <mxGeometry y="26" width="160" height="26" as="geometry" />
        </mxCell>
        <mxCell id="9eXsRLndxlfZN3I_KBE4-61" value="" style="line;strokeWidth=1;fillColor=none;align=left;verticalAlign=middle;spacingTop=-1;spacingLeft=3;spacingRight=3;rotatable=0;labelPosition=right;points=[];portConstraint=eastwest;strokeColor=inherit;" vertex="1" parent="9eXsRLndxlfZN3I_KBE4-59">
          <mxGeometry y="52" width="160" height="8" as="geometry" />
        </mxCell>
        <mxCell id="9eXsRLndxlfZN3I_KBE4-62" value="+ method(type): type" style="text;strokeColor=none;fillColor=none;align=left;verticalAlign=top;spacingLeft=4;spacingRight=4;overflow=hidden;rotatable=0;points=[[0,0.5],[1,0.5]];portConstraint=eastwest;whiteSpace=wrap;html=1;" vertex="1" parent="9eXsRLndxlfZN3I_KBE4-59">
          <mxGeometry y="60" width="160" height="26" as="geometry" />
        </mxCell>
        <mxCell id="9eXsRLndxlfZN3I_KBE4-63" value="&lt;div style=&quot;font-size: 14px; font-weight: 400; direction: ltr;&quot;&gt;&amp;lt;Abstract&amp;gt;&lt;br&gt;&lt;/div&gt;&lt;div style=&quot;font-size: 14px; font-weight: 400; direction: ltr;&quot;&gt;User&lt;/div&gt;" style="swimlane;fontStyle=1;align=center;verticalAlign=top;childLayout=stackLayout;horizontal=1;startSize=40;horizontalStack=0;resizeParent=1;resizeParentMax=0;resizeLast=0;collapsible=1;marginBottom=0;whiteSpace=wrap;html=1;" vertex="1" parent="1">
          <mxGeometry x="280" y="-219" width="160" height="164" as="geometry" />
        </mxCell>
        <mxCell id="9eXsRLndxlfZN3I_KBE4-64" value="- firstName: String&lt;div&gt;- lastName: String&lt;br&gt;&lt;div&gt;- dateOfBirth: Date&lt;br&gt;&lt;/div&gt;&lt;/div&gt;&lt;div&gt;- loginID: String&lt;/div&gt;&lt;div&gt;- loginPassword: String&lt;/div&gt;" style="text;strokeColor=none;fillColor=none;align=left;verticalAlign=top;spacingLeft=4;spacingRight=4;overflow=hidden;rotatable=0;points=[[0,0.5],[1,0.5]];portConstraint=eastwest;whiteSpace=wrap;html=1;" vertex="1" parent="9eXsRLndxlfZN3I_KBE4-63">
          <mxGeometry y="40" width="160" height="90" as="geometry" />
        </mxCell>
        <mxCell id="9eXsRLndxlfZN3I_KBE4-65" value="" style="line;strokeWidth=1;fillColor=none;align=left;verticalAlign=middle;spacingTop=-1;spacingLeft=3;spacingRight=3;rotatable=0;labelPosition=right;points=[];portConstraint=eastwest;strokeColor=inherit;" vertex="1" parent="9eXsRLndxlfZN3I_KBE4-63">
          <mxGeometry y="130" width="160" height="8" as="geometry" />
        </mxCell>
        <mxCell id="9eXsRLndxlfZN3I_KBE4-66" value="-&amp;nbsp;" style="text;strokeColor=none;fillColor=none;align=left;verticalAlign=top;spacingLeft=4;spacingRight=4;overflow=hidden;rotatable=0;points=[[0,0.5],[1,0.5]];portConstraint=eastwest;whiteSpace=wrap;html=1;" vertex="1" parent="9eXsRLndxlfZN3I_KBE4-63">
          <mxGeometry y="138" width="160" height="26" as="geometry" />
        </mxCell>
        <mxCell id="9eXsRLndxlfZN3I_KBE4-67" value="&lt;div style=&quot;font-size: 14px; font-weight: 400; direction: ltr;&quot;&gt;&amp;lt;Abstract&amp;gt;&lt;/div&gt;&lt;div style=&quot;font-size: 14px; font-weight: 400; direction: ltr;&quot;&gt;Dentist&lt;/div&gt;" style="swimlane;fontStyle=1;align=center;verticalAlign=top;childLayout=stackLayout;horizontal=1;startSize=40;horizontalStack=0;resizeParent=1;resizeParentMax=0;resizeLast=0;collapsible=1;marginBottom=0;whiteSpace=wrap;html=1;" vertex="1" parent="1">
          <mxGeometry x="440" y="130" width="160" height="100" as="geometry" />
        </mxCell>
        <mxCell id="9eXsRLndxlfZN3I_KBE4-68" value="- dentistID: long" style="text;strokeColor=none;fillColor=none;align=left;verticalAlign=top;spacingLeft=4;spacingRight=4;overflow=hidden;rotatable=0;points=[[0,0.5],[1,0.5]];portConstraint=eastwest;whiteSpace=wrap;html=1;" vertex="1" parent="9eXsRLndxlfZN3I_KBE4-67">
          <mxGeometry y="40" width="160" height="26" as="geometry" />
        </mxCell>
        <mxCell id="9eXsRLndxlfZN3I_KBE4-69" value="" style="line;strokeWidth=1;fillColor=none;align=left;verticalAlign=middle;spacingTop=-1;spacingLeft=3;spacingRight=3;rotatable=0;labelPosition=right;points=[];portConstraint=eastwest;strokeColor=inherit;" vertex="1" parent="9eXsRLndxlfZN3I_KBE4-67">
          <mxGeometry y="66" width="160" height="8" as="geometry" />
        </mxCell>
        <mxCell id="9eXsRLndxlfZN3I_KBE4-70" value="- generateID(): long" style="text;strokeColor=none;fillColor=none;align=left;verticalAlign=top;spacingLeft=4;spacingRight=4;overflow=hidden;rotatable=0;points=[[0,0.5],[1,0.5]];portConstraint=eastwest;whiteSpace=wrap;html=1;" vertex="1" parent="9eXsRLndxlfZN3I_KBE4-67">
          <mxGeometry y="74" width="160" height="26" as="geometry" />
        </mxCell>
        <mxCell id="9eXsRLndxlfZN3I_KBE4-71" value="&lt;div style=&quot;font-size: 14px; font-weight: 400; direction: ltr;&quot;&gt;Patient&lt;br&gt;&lt;/div&gt;" style="swimlane;fontStyle=1;align=center;verticalAlign=top;childLayout=stackLayout;horizontal=1;startSize=30;horizontalStack=0;resizeParent=1;resizeParentMax=0;resizeLast=0;collapsible=1;marginBottom=0;whiteSpace=wrap;html=1;" vertex="1" parent="1">
          <mxGeometry x="160" y="130" width="160" height="90" as="geometry" />
        </mxCell>
        <mxCell id="9eXsRLndxlfZN3I_KBE4-72" value="- patientID: long" style="text;strokeColor=none;fillColor=none;align=left;verticalAlign=top;spacingLeft=4;spacingRight=4;overflow=hidden;rotatable=0;points=[[0,0.5],[1,0.5]];portConstraint=eastwest;whiteSpace=wrap;html=1;" vertex="1" parent="9eXsRLndxlfZN3I_KBE4-71">
          <mxGeometry y="30" width="160" height="26" as="geometry" />
        </mxCell>
        <mxCell id="9eXsRLndxlfZN3I_KBE4-73" value="" style="line;strokeWidth=1;fillColor=none;align=left;verticalAlign=middle;spacingTop=-1;spacingLeft=3;spacingRight=3;rotatable=0;labelPosition=right;points=[];portConstraint=eastwest;strokeColor=inherit;" vertex="1" parent="9eXsRLndxlfZN3I_KBE4-71">
          <mxGeometry y="56" width="160" height="8" as="geometry" />
        </mxCell>
        <mxCell id="9eXsRLndxlfZN3I_KBE4-74" value="- generateID(): long" style="text;strokeColor=none;fillColor=none;align=left;verticalAlign=top;spacingLeft=4;spacingRight=4;overflow=hidden;rotatable=0;points=[[0,0.5],[1,0.5]];portConstraint=eastwest;whiteSpace=wrap;html=1;" vertex="1" parent="9eXsRLndxlfZN3I_KBE4-71">
          <mxGeometry y="64" width="160" height="26" as="geometry" />
        </mxCell>
        <mxCell id="9eXsRLndxlfZN3I_KBE4-75" value="Use" style="endArrow=open;endSize=12;dashed=1;html=1;rounded=0;" edge="1" parent="1" source="9eXsRLndxlfZN3I_KBE4-84" target="9eXsRLndxlfZN3I_KBE4-32">
          <mxGeometry x="0.3193" width="160" relative="1" as="geometry">
            <mxPoint x="960" y="-76" as="sourcePoint" />
            <mxPoint x="1059" as="targetPoint" />
            <Array as="points">
              <mxPoint x="1000" y="200" />
            </Array>
            <mxPoint as="offset" />
          </mxGeometry>
        </mxCell>
        <mxCell id="9eXsRLndxlfZN3I_KBE4-76" value="Use" style="endArrow=open;endSize=12;dashed=1;html=1;rounded=0;" edge="1" parent="1" source="9eXsRLndxlfZN3I_KBE4-46" target="9eXsRLndxlfZN3I_KBE4-41">
          <mxGeometry width="160" relative="1" as="geometry">
            <mxPoint x="894" y="-370" as="sourcePoint" />
            <mxPoint x="1129" y="365" as="targetPoint" />
            <Array as="points">
              <mxPoint x="1340" y="210" />
              <mxPoint x="1340" y="360" />
            </Array>
          </mxGeometry>
        </mxCell>
        <mxCell id="9eXsRLndxlfZN3I_KBE4-77" value="&lt;div style=&quot;font-size: 14px; font-weight: 400; direction: ltr;&quot;&gt;UserController&lt;/div&gt;" style="swimlane;fontStyle=1;align=center;verticalAlign=top;childLayout=stackLayout;horizontal=1;startSize=40;horizontalStack=0;resizeParent=1;resizeParentMax=0;resizeLast=0;collapsible=1;marginBottom=0;whiteSpace=wrap;html=1;" vertex="1" parent="1">
          <mxGeometry x="545" y="-390" width="160" height="114" as="geometry" />
        </mxCell>
        <mxCell id="9eXsRLndxlfZN3I_KBE4-78" value="- model: User&lt;div&gt;- view: UserView&lt;/div&gt;" style="text;strokeColor=none;fillColor=none;align=left;verticalAlign=top;spacingLeft=4;spacingRight=4;overflow=hidden;rotatable=0;points=[[0,0.5],[1,0.5]];portConstraint=eastwest;whiteSpace=wrap;html=1;" vertex="1" parent="9eXsRLndxlfZN3I_KBE4-77">
          <mxGeometry y="40" width="160" height="40" as="geometry" />
        </mxCell>
        <mxCell id="9eXsRLndxlfZN3I_KBE4-79" value="" style="line;strokeWidth=1;fillColor=none;align=left;verticalAlign=middle;spacingTop=-1;spacingLeft=3;spacingRight=3;rotatable=0;labelPosition=right;points=[];portConstraint=eastwest;strokeColor=inherit;" vertex="1" parent="9eXsRLndxlfZN3I_KBE4-77">
          <mxGeometry y="80" width="160" height="8" as="geometry" />
        </mxCell>
        <mxCell id="9eXsRLndxlfZN3I_KBE4-80" value="- lastName: String" style="text;strokeColor=none;fillColor=none;align=left;verticalAlign=top;spacingLeft=4;spacingRight=4;overflow=hidden;rotatable=0;points=[[0,0.5],[1,0.5]];portConstraint=eastwest;whiteSpace=wrap;html=1;" vertex="1" parent="9eXsRLndxlfZN3I_KBE4-77">
          <mxGeometry y="88" width="160" height="26" as="geometry" />
        </mxCell>
        <mxCell id="9eXsRLndxlfZN3I_KBE4-81" value="Graphical interface" style="html=1;whiteSpace=wrap;" vertex="1" parent="1">
          <mxGeometry x="570" y="-162" width="110" height="50" as="geometry" />
        </mxCell>
        <mxCell id="9eXsRLndxlfZN3I_KBE4-82" value="" style="endArrow=classic;html=1;rounded=0;" edge="1" parent="1" source="9eXsRLndxlfZN3I_KBE4-77" target="9eXsRLndxlfZN3I_KBE4-81">
          <mxGeometry width="50" height="50" relative="1" as="geometry">
            <mxPoint x="720" y="-170" as="sourcePoint" />
            <mxPoint x="680" y="-200" as="targetPoint" />
          </mxGeometry>
        </mxCell>
        <mxCell id="9eXsRLndxlfZN3I_KBE4-83" value="listens to actions" style="edgeLabel;html=1;align=center;verticalAlign=middle;resizable=0;points=[];" vertex="1" connectable="0" parent="9eXsRLndxlfZN3I_KBE4-82">
          <mxGeometry x="-0.0917" y="-2" relative="1" as="geometry">
            <mxPoint as="offset" />
          </mxGeometry>
        </mxCell>
        <mxCell id="9eXsRLndxlfZN3I_KBE4-84" value="&lt;div style=&quot;font-size: 14px; font-weight: 400; direction: ltr;&quot;&gt;VisitFactory&lt;/div&gt;" style="swimlane;fontStyle=1;align=center;verticalAlign=top;childLayout=stackLayout;horizontal=1;startSize=40;horizontalStack=0;resizeParent=1;resizeParentMax=0;resizeLast=0;collapsible=1;marginBottom=0;whiteSpace=wrap;html=1;" vertex="1" parent="1">
          <mxGeometry x="800" y="-440" width="160" height="74" as="geometry" />
        </mxCell>
        <mxCell id="9eXsRLndxlfZN3I_KBE4-86" value="" style="line;strokeWidth=1;fillColor=none;align=left;verticalAlign=middle;spacingTop=-1;spacingLeft=3;spacingRight=3;rotatable=0;labelPosition=right;points=[];portConstraint=eastwest;strokeColor=inherit;" vertex="1" parent="9eXsRLndxlfZN3I_KBE4-84">
          <mxGeometry y="40" width="160" height="8" as="geometry" />
        </mxCell>
        <mxCell id="9eXsRLndxlfZN3I_KBE4-87" value="+ createVisit(); void" style="text;strokeColor=none;fillColor=none;align=left;verticalAlign=top;spacingLeft=4;spacingRight=4;overflow=hidden;rotatable=0;points=[[0,0.5],[1,0.5]];portConstraint=eastwest;whiteSpace=wrap;html=1;" vertex="1" parent="9eXsRLndxlfZN3I_KBE4-84">
          <mxGeometry y="48" width="160" height="26" as="geometry" />
        </mxCell>
        <mxCell id="9eXsRLndxlfZN3I_KBE4-89" value="" style="endArrow=none;html=1;rounded=0;fontSize=12;startSize=8;endSize=8;curved=1;" edge="1" parent="1" source="9eXsRLndxlfZN3I_KBE4-28" target="9eXsRLndxlfZN3I_KBE4-32">
          <mxGeometry relative="1" as="geometry">
            <mxPoint x="1180" y="510" as="sourcePoint" />
            <mxPoint x="1340" y="510" as="targetPoint" />
          </mxGeometry>
        </mxCell>
        <mxCell id="9eXsRLndxlfZN3I_KBE4-90" value="M" style="edgeLabel;html=1;align=center;verticalAlign=middle;resizable=0;points=[];fontSize=12;" vertex="1" connectable="0" parent="9eXsRLndxlfZN3I_KBE4-89">
          <mxGeometry x="0.8506" y="-1" relative="1" as="geometry">
            <mxPoint as="offset" />
          </mxGeometry>
        </mxCell>
        <mxCell id="9eXsRLndxlfZN3I_KBE4-91" value="1" style="edgeLabel;html=1;align=center;verticalAlign=middle;resizable=0;points=[];fontSize=12;" vertex="1" connectable="0" parent="9eXsRLndxlfZN3I_KBE4-89">
          <mxGeometry x="-0.8116" y="-1" relative="1" as="geometry">
            <mxPoint as="offset" />
          </mxGeometry>
        </mxCell>
        <mxCell id="9eXsRLndxlfZN3I_KBE4-92" value="" style="endArrow=none;html=1;rounded=0;fontSize=12;startSize=8;endSize=8;curved=1;" edge="1" parent="1" source="9eXsRLndxlfZN3I_KBE4-28" target="9eXsRLndxlfZN3I_KBE4-36">
          <mxGeometry relative="1" as="geometry">
            <mxPoint x="1263" y="534" as="sourcePoint" />
            <mxPoint x="1194" y="410" as="targetPoint" />
          </mxGeometry>
        </mxCell>
        <mxCell id="9eXsRLndxlfZN3I_KBE4-93" value="M" style="edgeLabel;html=1;align=center;verticalAlign=middle;resizable=0;points=[];fontSize=12;" vertex="1" connectable="0" parent="9eXsRLndxlfZN3I_KBE4-92">
          <mxGeometry x="0.8506" y="-1" relative="1" as="geometry">
            <mxPoint as="offset" />
          </mxGeometry>
        </mxCell>
        <mxCell id="9eXsRLndxlfZN3I_KBE4-94" value="1" style="edgeLabel;html=1;align=center;verticalAlign=middle;resizable=0;points=[];fontSize=12;" vertex="1" connectable="0" parent="9eXsRLndxlfZN3I_KBE4-92">
          <mxGeometry x="-0.8116" y="-1" relative="1" as="geometry">
            <mxPoint as="offset" />
          </mxGeometry>
        </mxCell>
        <mxCell id="9eXsRLndxlfZN3I_KBE4-95" value="&lt;div style=&quot;font-size: 14px; font-weight: 400; direction: ltr;&quot;&gt;UserFactory&lt;/div&gt;" style="swimlane;fontStyle=1;align=center;verticalAlign=top;childLayout=stackLayout;horizontal=1;startSize=40;horizontalStack=0;resizeParent=1;resizeParentMax=0;resizeLast=0;collapsible=1;marginBottom=0;whiteSpace=wrap;html=1;" vertex="1" parent="1">
          <mxGeometry x="610" y="-10" width="160" height="74" as="geometry" />
        </mxCell>
        <mxCell id="9eXsRLndxlfZN3I_KBE4-96" value="" style="line;strokeWidth=1;fillColor=none;align=left;verticalAlign=middle;spacingTop=-1;spacingLeft=3;spacingRight=3;rotatable=0;labelPosition=right;points=[];portConstraint=eastwest;strokeColor=inherit;" vertex="1" parent="9eXsRLndxlfZN3I_KBE4-95">
          <mxGeometry y="40" width="160" height="8" as="geometry" />
        </mxCell>
        <mxCell id="9eXsRLndxlfZN3I_KBE4-97" value="+ createUser(); void" style="text;strokeColor=none;fillColor=none;align=left;verticalAlign=top;spacingLeft=4;spacingRight=4;overflow=hidden;rotatable=0;points=[[0,0.5],[1,0.5]];portConstraint=eastwest;whiteSpace=wrap;html=1;" vertex="1" parent="9eXsRLndxlfZN3I_KBE4-95">
          <mxGeometry y="48" width="160" height="26" as="geometry" />
        </mxCell>
        <mxCell id="9eXsRLndxlfZN3I_KBE4-98" value="&lt;div style=&quot;font-size: 14px; font-weight: 400; direction: ltr;&quot;&gt;BillFactory&lt;/div&gt;" style="swimlane;fontStyle=1;align=center;verticalAlign=top;childLayout=stackLayout;horizontal=1;startSize=40;horizontalStack=0;resizeParent=1;resizeParentMax=0;resizeLast=0;collapsible=1;marginBottom=0;whiteSpace=wrap;html=1;" vertex="1" parent="1">
          <mxGeometry x="1030" y="-10" width="160" height="74" as="geometry" />
        </mxCell>
        <mxCell id="9eXsRLndxlfZN3I_KBE4-99" value="" style="line;strokeWidth=1;fillColor=none;align=left;verticalAlign=middle;spacingTop=-1;spacingLeft=3;spacingRight=3;rotatable=0;labelPosition=right;points=[];portConstraint=eastwest;strokeColor=inherit;" vertex="1" parent="9eXsRLndxlfZN3I_KBE4-98">
          <mxGeometry y="40" width="160" height="8" as="geometry" />
        </mxCell>
        <mxCell id="9eXsRLndxlfZN3I_KBE4-100" value="+ createBill(); void" style="text;strokeColor=none;fillColor=none;align=left;verticalAlign=top;spacingLeft=4;spacingRight=4;overflow=hidden;rotatable=0;points=[[0,0.5],[1,0.5]];portConstraint=eastwest;whiteSpace=wrap;html=1;" vertex="1" parent="9eXsRLndxlfZN3I_KBE4-98">
          <mxGeometry y="48" width="160" height="26" as="geometry" />
        </mxCell>
      </root>
    </mxGraphModel>
  </diagram>
</mxfile>
